<?xml version="1.0" encoding="UTF-8"?>
<svg id="Layer_2" data-name="Layer 2" xmlns="http://www.w3.org/2000/svg" viewBox="0 0 241.2 138.03">
  <defs>
    <style>
      .cls-1 {
        fill: #3a5f7a;
      }
    </style>
  </defs>
  <g id="LOGO_HANS" data-name="LOGO HANS">
    <g id="zmbr6b.tif">
      <g>
        <path class="cls-1" d="M116.33.32c1.29.77,1.12,4.73.6,6.17-1.37,3.85-4.72,4.29-7.47,6.5-3.96,3.2-4.53,7.97-4.04,12.93,2.01,20.24,16.96,40.06,16.88,60.86-.07,18.02-11.39,41.08-26.86,50.8-.38.24-.59.58-1.23.39-6.21-5.26,1.13-9.43,4.53-12.74,26.52-25.85,12.13-48.4,2.37-77.03-.45-1.31-1.64-7.07-2.17-7.56-.98-.9-1.6,2.48-1.75,2.99-3.91,13.23-6.63,27.95-9.34,41.55-.73,3.64-2.46,8.48-2.84,12.13-.54,5.27,1.25,11.5-1.81,16.15-.79,1.2-2.9,3.35-4.44,3.03-5.16-2.87-2.01-10.26-1.76-14.72,1-17.73-.97-35.9.23-53.65-.65.6-1.23,1.03-1.61,1.88-2.67,5.85-5.39,18.28-7,24.94-2.05,8.5-3.94,17.33-5.51,25.93-.86,4.73-.44,17.08-6.49,18.51-.84.2-2.93-.58-3.12-1.27-.23-.86.09-6.15.23-7.31.14-1.23.67-2.16.75-3.08.51-5.62.62-11.21.55-16.86-.1-.46-.9-.61-1.28-.6-4.1.13-10.56,5.5-15.16,5.82-.42.48.13,10.76-.06,12.67-.35,3.55-2.07,8.89-5.65,10.36-4.03,1.65-3.92-6.6-3.86-8.89.51-20.06,2.07-40.23,2.55-60.33.04-1.69-.23-3.13-.53-4.76-1.38-.2-.76.17-.99.74-8.43,20.71-14.02,43.92-21.85,64.98-.92,1.51-1.85,3.69-3.48,4.51-3.55,1.78-5.21-1.34-4.6-4.6,3.67-19.68,6.53-40.28,10-59.85,2.17-12.22,3.87-26.51,6.57-38.33.53-2.34,1.99-5.86,4.65-6.34,5.89-1.05,3.33,5.28,2.83,8.33-1.39,8.5-2.78,17.12-4.24,25.7-1.23,7.23-3.37,14.45-3.36,21.83.96-.57,1.41-2.37,1.81-3.42,6.4-16.66,11.29-34.45,16.95-51.4,2.13-4.63,7.87-6.67,7.21.73-.14,1.57-.86,2.4-1,3.49-1.57,12.68-1.49,25.61-2,38.41-.13,3.27-1.37,7.69-.89,10.83.07.44.22,1.5.86,1.36,3.95-13.03,8.56-26.07,11.84-39.3,1.13-4.57,1.48-8.29,2.26-12.71.3-1.74,2.44-6.22,4.23-6.75,7.31-2.17,3.63,7.59,3.6,11.12-.09,11.53,1.01,23.36,1.56,34.9.2,4.31-.19,8.68-.02,12.99l.99.25c5.03-15.09,10.23-30.26,13.85-45.78,1.07-4.59.56-12.44,5.44-15.01,6.76-3.57,2.84,10.8,2.66,13.63-.4,6.49-.4,13.47-.51,19.95-.12,7.39-.06,14.85.27,22.22,2.62-5.23,3.29-11.44,4.88-17.08,4.24-15.08,7.81-31.84,22.92-39.35.51-.26,1.16-1.84,2.83-.85ZM41.03,85.04c.87.11,1.65-.03,2.5-.24,1.52-.39,8.16-3.31,9.84-4.14.63-.31,1.33-.74,1.54-1.45l-.91-36.07-1.65,1.12c-3.52,13.66-8.45,27-11.32,40.78Z"/>
        <path class="cls-1" d="M156.65,9.42c18.06,13.75,8.59,54.31.89,72.07-4.46,10.28-16.72,28.93-27.2,33.69-5.27,2.39-4.24-3.08-3.85-6.35,1.01-8.68,3.58-17.14,5.29-25.65,3.59-17.89,7.25-35.73,10.04-53.82.75-4.85.82-16.94,4.23-19.97.97-.86,5.23-2.33,6.56-2.22s3.01,1.46,4.04,2.24ZM135.89,101.01c5.23-3.86,9.26-10.1,12.32-15.87,7.68-14.45,14.09-40.14,8.88-55.96-.69-2.1-3.68-8.18-5.97-8.5l-15.23,80.33Z"/>
        <path class="cls-1" d="M187.72,10.3c2.41,3.7-1.24,7.18-2.59,10.46-8.02,19.57-10.91,50.36-12.81,71.51-.38,4.21-1.56,8.33-.99,12.73,4.7-.4,8.03-5.63,10.29-9.42,10.42-17.42,16.96-54.21,14.13-74.11-.17-1.23-1.07-1.96-1-3.51.1-2.33,2.88-6.01,4.76-7.27,1.44-.96,2.75.26,3.48,1.56,1.99,3.59,1.54,18.36,1.28,23.15-1.17,21.76-9.17,62.21-27.21,76.57-4.15,3.31-13.02,8.24-14.17-.28-.81-6.05,1.65-16.55,1.94-22.91,2.5-21.15,4.86-44.25,11.64-64.7,1.59-4.79,4.91-15.03,11.25-13.78Z"/>
        <path class="cls-1" d="M217.75,24.68l-4.99,38.92c.38.38,7.01-1.82,8.27-1.96,4.33-.48,8.34-.17,12.89-1.08,1.97-.4,3.13-2.06,5.66-1.11,3.23,1.22.83,5.7-.67,7.6-5.17,6.55-20.52,2.82-27.55,7.14l-4.1,32.81c5.51-2.54,9.94-7.12,15.22-9.98,5.57-3.01,12.94-4.9,8.26,4.27-1.9,3.72-5.73,3.95-9.07,5.9-6.53,3.81-12.55,8.93-18.93,13.01-5.55,2.56-4.16-9.09-3.92-12.4,1-14.1,3.95-29.39,5.89-43.51,2.05-14.98,3.39-33.11,6.78-47.6.54-2.3,3.24-6.69,5.96-6.49.9.07,9.27,4.88,11.79,5.73,2.38.79,6.73,1.27,8.45,2.03,3.77,1.66-.14,9.61-3.24,10.2-6.02,1.15-10.94-3.26-16.71-3.48Z"/>
      </g>
    </g>
  </g>
</svg>