<?xml version="1.0" encoding="UTF-8"?>
<svg id="Layer_2" data-name="Layer 2" xmlns="http://www.w3.org/2000/svg" viewBox="0 0 616.62 391.1">
  <defs>
    <style>
      .cls-1 {
        fill: #a01f2c;
      }

      .cls-2 {
        fill: #da362f;
      }
    </style>
  </defs>
  <g id="Hjerte">
    <path class="cls-1" d="M542.49,139.03c-18.77-9.04-34.56-24.12-46.16-41.28-5.73-8.47-10.59-17.21-11.73-27.51-1.92-17.34,5.54-36.93,22.98-43.22,22.19-8,40.37,16,40.37,16,13.61-10.38,34.98-19.14,51.42-10.04,14.58,8.07,19.72,27.6,16.18,42.98-.96,4.54-2.69,8.99-4.8,13.11-2.86,5.6-6.59,10.72-10.85,15.33-4.35,4.71-9.25,8.89-14.43,12.65-5.23,3.8-10.77,7.17-16.47,10.22-6.28,3.36-12.76,6.28-19.33,9.01"/>
  </g>
  <g id="Fugl">
    <path class="cls-2" d="M474.1,110.07l33.5-28.34-34.11-3.52c-1.48-5.81-3.8-11.54-6.62-16.81-2.2-4.12-4.86-8.29-8.41-11.37-4.73-4.09-10.89-7.18-16.49-9.85-3.97-1.9-7.91-3.37-12.28-4.06-4.61-.72-9.32-.72-13.97-.38,0,0-15.45,2.13-26.32,11.2-10.88,9.07-17.98,30.67-17.98,30.67-12.69,40.62-27.06,55.33-37.44,55.32-13.9-.02-22.24-44.18-22.98-52.28-.83-5.3-1.11-8.26-1.11-8.26-.52-5.13-.92-6.31-1.74-13.41-1.08-9.4-7.33-34.26-27.26-46.67-6.19-3.86-12.06-5.26-23.81-7.97C241.47.72,229.03.3,224.38.18c-21.14-.54-82.35.09-164.74,2.81-1.93,10.36-5.2,33.09.43,54.99,3.53,13.7,8.58,19.59,12.32,22.87,4.18,3.66,8.5,5.61,11.47,6.67,2.02.61,4.36,1.17,6.97,1.58,3.07.49,5.85.65,8.25.65,36.9-1.68,73.8-3.38,110.69-5.07.71-.03,1.3.52,1.32,1.22l.2,6.76c.02.81-.61,1.48-1.42,1.5l-127.06,3.56c-.8.02-1.6-.04-2.38-.21-2.42-.53-5.33-1.45-8.36-3.11-8.68-4.73-12.69-12.33-14.14-15.54-1.05,7.43-3.05,28.7,8.82,51.4,13.04,24.91,34.35,35.39,40.9,38.32,5.24,2.23,11.4,4.38,18.41,6.03,15.48,3.63,29.05,3.34,38.83,2.24,15.42-1.61,30.84-3.21,46.26-4.82.56,0,1.02.42,1.05.99l.34,8.11c.02.61-.39,1.15-.98,1.28-11.36,2.51-60.62,12.66-95.38,2.52-11.61-3.39-20.91-8.62-20.91-8.62-15.43-8.68-25.21-19.96-30.66-27.42-.33-.45-.84-.71-1.39-.7-7.43.09-59.85.8-59.85,2.66,0,2-4.67,67.41-3.01,67.74,17.81,3.56,27.98-.88,54.72,6,27.03,6.96,30.44,25.1,81.42,79.75,39.95,42.82,59.46,54.85,65.4,58.4,28.05,16.73,52.09,22.29,60.92,24.27,11.98,2.68,25.24,4.2,40.86,4.09,14.97-.1,31.26.13,51.87-5.5,13.14-3.59,23.07-8.36,30.6-11.91,9.71-4.6,18.51-8.75,28.75-16.12,21.9-15.77,34.47-34.8,41.81-46.11.54-.83,3.12-4.41,5.31-8.66,9.71-18.94,21.42-47.66,25.65-84.11,1.94-16.79,8.41-51.38-6.79-90.05-6.41-16.31-6.78-18.57-6.78-18.57h0ZM421.3,86.87c-2.78,0-5.02-2.09-5.02-4.67s2.24-4.67,5.02-4.67,5.01,2.09,5.01,4.67-2.24,4.67-5.01,4.67Z"/>
  </g>
</svg>